<svg width="32" height="32" viewBox="0 0 32 32" fill="none" xmlns="http://www.w3.org/2000/svg"
    style="border-radius: 9999px;">
    <path d="M32 0H0V32H32V0Z" fill="url(#paint0_linear)" />
    <path
        d="M16.6354 10.4751C16.6354 9.38427 17.5197 8.5 18.6105 8.5C19.7013 8.5 20.5856 9.38427 20.5856 10.4751V16.2039H16.6354V10.4751Z"
        fill="white" />
    <path
        d="M16.6352 22.0073C16.6352 23.1401 15.7169 24.0583 14.5841 24.0583C13.4514 24.0583 12.5331 23.14 12.5331 22.0073V16.2034H16.6352V22.0073Z"
        fill="white" />
    <path
        d="M9.9505 12.3601C9.9505 11.6468 10.5287 11.0687 11.2419 11.0687C11.9551 11.0687 12.5333 11.6468 12.5333 12.3601V16.2046H9.9505V12.3601Z"
        fill="white" />
    <path
        d="M9.95054 18.1583C9.95054 19.0813 9.20232 19.8295 8.27932 19.8295C7.35632 19.8295 6.60809 19.0813 6.60809 18.1583V16.2041H9.95054V18.1583Z"
        fill="white" />
    <path
        d="M27.914 17.4707C27.914 18.1674 27.3492 18.7322 26.6525 18.7322C25.9557 18.7322 25.391 18.1674 25.391 17.4707V16.2091H27.914V17.4707Z"
        fill="white" />
    <path
        d="M4.08606 14.9476C4.08606 14.2509 4.65088 13.6861 5.34759 13.6861C6.04431 13.6861 6.60911 14.2509 6.60911 14.9476V16.2091H4.08606V14.9476Z"
        fill="white" />
    <path
        d="M23.1686 20.8039C23.1686 21.5171 22.5904 22.0953 21.8772 22.0953C21.164 22.0953 20.5858 21.5171 20.5858 20.8039V16.2041H23.1686V20.8039Z"
        fill="white" />
    <path
        d="M23.1686 12.0557C23.1686 11.4264 23.6788 10.9163 24.3081 10.9163C24.9374 10.9163 25.4475 11.4264 25.4475 12.0557V16.2033H23.1686V12.0557Z"
        fill="white" />
    <defs>
        <linearGradient id="paint0_linear" x1="16" y1="3.375" x2="16" y2="25" gradientUnits="userSpaceOnUse">
            <stop stop-color="#6F56FD" />
            <stop offset="1" stop-color="#00CABE" />
        </linearGradient>
    </defs>
</svg>